<?xml version="1.0" encoding="UTF-8" standalone="no"?>
<svg
   xmlns:dc="http://purl.org/dc/elements/1.1/"
   xmlns:cc="http://creativecommons.org/ns#"
   xmlns:rdf="http://www.w3.org/1999/02/22-rdf-syntax-ns#"
   xmlns:svg="http://www.w3.org/2000/svg"
   xmlns="http://www.w3.org/2000/svg"
   xmlns:xlink="http://www.w3.org/1999/xlink"
   xmlns:sodipodi="http://sodipodi.sourceforge.net/DTD/sodipodi-0.dtd"
   xmlns:inkscape="http://www.inkscape.org/namespaces/inkscape"
   id="Layer_1"
   data-name="Layer 1"
   viewBox="0 0 1405.3545 217.07551"
   version="1.1"
   sodipodi:docname="Reddit_Lockup.svg"
   width="1405.3545"
   height="217.0755"
   inkscape:version="1.0.2 (e86c8708, 2021-01-15)">
  <metadata
     id="metadata955">
    <rdf:RDF>
      <cc:Work
         rdf:about="">
        <dc:format>image/svg+xml</dc:format>
        <dc:type
           rdf:resource="http://purl.org/dc/dcmitype/StillImage" />
        <dc:title></dc:title>
      </cc:Work>
    </rdf:RDF>
  </metadata>
  <sodipodi:namedview
     pagecolor="#ffffff"
     bordercolor="#666666"
     borderopacity="1"
     objecttolerance="10"
     gridtolerance="10"
     guidetolerance="10"
     inkscape:pageopacity="0"
     inkscape:pageshadow="2"
     inkscape:window-width="1872"
     inkscape:window-height="1027"
     id="namedview953"
     showgrid="false"
     showguides="true"
     inkscape:guide-bbox="true"
     fit-margin-top="0"
     fit-margin-left="0"
     fit-margin-right="0"
     fit-margin-bottom="0"
     inkscape:zoom="0.86191623"
     inkscape:cx="718.16724"
     inkscape:cy="108.53775"
     inkscape:window-x="0"
     inkscape:window-y="25"
     inkscape:window-maximized="0"
     inkscape:current-layer="Layer_1">
    <sodipodi:guide
       position="1446.7173,457.15305"
       orientation="0,-1"
       id="guide961" />
    <sodipodi:guide
       position="577.6866,38.267747"
       orientation="0,-1"
       id="guide963" />
  </sodipodi:namedview>
  <defs
     id="defs932">
    <style
       id="style833">
      .cls-1 {
        fill: url(#radial-gradient);
      }

      .cls-1, .cls-2, .cls-3, .cls-4, .cls-5, .cls-6, .cls-7, .cls-8, .cls-9, .cls-10, .cls-11, .cls-12, .cls-13, .cls-14 {
        stroke-width: 0px;
      }

      .cls-2 {
        fill: url(#radial-gradient-2);
      }

      .cls-3 {
        fill: url(#radial-gradient-3);
      }

      .cls-4 {
        fill: url(#radial-gradient-4);
      }

      .cls-5 {
        fill: url(#radial-gradient-6);
      }

      .cls-6 {
        fill: url(#radial-gradient-8);
      }

      .cls-7 {
        fill: url(#radial-gradient-5);
      }

      .cls-8 {
        fill: url(#radial-gradient-7);
      }

      .cls-9 {
        fill: #842123;
      }

      .cls-10 {
        fill: #bbcfda;
      }

      .cls-11 {
        fill: #ff6101;
      }

      .cls-12 {
        fill: #fff;
      }

      .cls-13 {
        fill: #ff4500;
      }

      .cls-14 {
        fill: #ffc49c;
      }
    </style>
    <radialGradient
       id="radial-gradient"
       cx="370.48999"
       cy="151.59"
       fx="370.48999"
       fy="142.47"
       r="127.45"
       gradientTransform="matrix(1,0,0,0.87,0,19.13)"
       gradientUnits="userSpaceOnUse">
      <stop
         offset="0"
         stop-color="#feffff"
         id="stop835" />
      <stop
         offset=".4"
         stop-color="#feffff"
         id="stop837" />
      <stop
         offset=".51"
         stop-color="#f9fcfc"
         id="stop839" />
      <stop
         offset=".62"
         stop-color="#edf3f5"
         id="stop841" />
      <stop
         offset=".7"
         stop-color="#dee9ec"
         id="stop843" />
      <stop
         offset=".72"
         stop-color="#d8e4e8"
         id="stop845" />
      <stop
         offset=".76"
         stop-color="#ccd8df"
         id="stop847" />
      <stop
         offset=".8"
         stop-color="#c8d5dd"
         id="stop849" />
      <stop
         offset=".83"
         stop-color="#ccd6de"
         id="stop851" />
      <stop
         offset=".85"
         stop-color="#d8dbe2"
         id="stop853" />
      <stop
         offset=".88"
         stop-color="#ede3e9"
         id="stop855" />
      <stop
         offset=".9"
         stop-color="#ffebef"
         id="stop857" />
    </radialGradient>
    <radialGradient
       id="radial-gradient-2"
       cx="64.379997"
       fx="64.379997"
       fy="142.47"
       r="127.45"
       xlink:href="#radial-gradient" />
    <radialGradient
       id="radial-gradient-3"
       cx="220.14"
       cy="135.08"
       fx="220.14"
       fy="135.08"
       r="384.44"
       gradientTransform="matrix(1,0,0,0.7,0,40.35)"
       xlink:href="#radial-gradient" />
    <radialGradient
       id="radial-gradient-4"
       cx="134.7"
       cy="240.48"
       fx="134.7"
       fy="240.48"
       r="32.119999"
       gradientTransform="matrix(1,0,0,1.46,0,-110.04)"
       gradientUnits="userSpaceOnUse">
      <stop
         offset="0"
         stop-color="#f60"
         id="stop862" />
      <stop
         offset=".5"
         stop-color="#ff4500"
         id="stop864" />
      <stop
         offset=".7"
         stop-color="#fc4301"
         id="stop866" />
      <stop
         offset=".82"
         stop-color="#f43f07"
         id="stop868" />
      <stop
         offset=".92"
         stop-color="#e53812"
         id="stop870" />
      <stop
         offset="1"
         stop-color="#d4301f"
         id="stop872" />
    </radialGradient>
    <radialGradient
       id="radial-gradient-5"
       cx="6191.5"
       cy="240.48"
       fx="6191.5"
       fy="240.48"
       r="32.119999"
       gradientTransform="matrix(-1,0,0,1.46,6489.32,-110.04)"
       xlink:href="#radial-gradient-4" />
    <radialGradient
       id="radial-gradient-6"
       cx="215.92999"
       cy="338.51999"
       fx="215.92999"
       fy="338.51999"
       r="113.26"
       gradientTransform="matrix(1,0,0,0.66,0,116.39)"
       gradientUnits="userSpaceOnUse">
      <stop
         offset="0"
         stop-color="#172e35"
         id="stop876" />
      <stop
         offset=".29"
         stop-color="#0e1c21"
         id="stop878" />
      <stop
         offset=".73"
         stop-color="#030708"
         id="stop880" />
      <stop
         offset="1"
         stop-color="#000"
         id="stop882" />
    </radialGradient>
    <radialGradient
       id="radial-gradient-7"
       cx="315.81"
       cy="3.47"
       fx="315.81"
       fy="3.47"
       r="99.419998"
       gradientTransform="matrix(1,0,0,0.98,0,0.06)"
       xlink:href="#radial-gradient" />
    <radialGradient
       id="radial-gradient-8"
       cx="274.38"
       cy="103.82"
       fx="274.38"
       fy="103.82"
       r="81.489998"
       gradientUnits="userSpaceOnUse">
      <stop
         offset=".48"
         stop-color="#7a9299"
         id="stop886" />
      <stop
         offset=".67"
         stop-color="#172e35"
         id="stop888" />
      <stop
         offset=".75"
         stop-color="#000"
         id="stop890" />
      <stop
         offset=".82"
         stop-color="#172e35"
         id="stop892" />
    </radialGradient>
    <symbol
       id="Snoo"
       viewBox="0 0 432.21 377.72">
      <g
         id="g929">
        <circle
           class="cls-1"
           cx="369.16"
           cy="188.55"
           r="63.049999"
           id="circle895" />
        <circle
           class="cls-2"
           cx="63.049999"
           cy="188.55"
           r="63.049999"
           id="circle897" />
        <ellipse
           class="cls-3"
           cx="216.25999"
           cy="242.72"
           rx="180"
           ry="135"
           id="ellipse899" />
        <g
           id="g905">
          <path
             class="cls-9"
             d="m 163.04,229.59 c -1.05,22.87 -16.23,31.17 -33.91,31.17 -17.68,0 -31.15,-11.71 -30.09,-34.58 1.05,-22.87 16.23,-38.01 33.91,-38.01 17.68,0 31.15,18.54 30.09,41.42 z"
             id="path901" />
          <path
             class="cls-9"
             d="m 333.48,226.18 c 1.05,22.87 -12.42,34.58 -30.09,34.58 -17.67,0 -32.85,-8.3 -33.91,-31.17 -1.05,-22.87 12.42,-41.42 30.09,-41.42 17.67,0 32.85,15.13 33.91,38.01 z"
             id="path903" />
        </g>
        <path
           class="cls-4"
           d="m 163.05,231.59 c -0.99,21.41 -15.19,29.17 -31.73,29.17 -16.54,0 -29.15,-11.63 -28.16,-33.03 0.99,-21.41 15.19,-35.41 31.73,-35.41 16.54,0 29.15,17.86 28.16,39.27 z"
           id="path907" />
        <path
           class="cls-7"
           d="m 269.47,231.59 c 0.99,21.41 15.19,29.17 31.73,29.17 16.54,0 29.15,-11.63 28.16,-33.03 -0.99,-21.41 -15.19,-35.41 -31.73,-35.41 -16.54,0 -29.15,17.86 -28.16,39.27 z"
           id="path909" />
        <ellipse
           class="cls-14"
           cx="145.19"
           cy="212.03999"
           rx="7"
           ry="7.6399999"
           id="ellipse911" />
        <ellipse
           class="cls-14"
           cx="311.64001"
           cy="212.03999"
           rx="7"
           ry="7.6399999"
           id="ellipse913" />
        <path
           class="cls-10"
           d="m 216.26,276.02 c -22.32,0 -43.71,1.08 -63.49,3.04 -3.38,0.34 -5.52,3.78 -4.21,6.86 11.08,25.97 37.22,44.21 67.7,44.21 30.48,0 56.62,-18.24 67.7,-44.21 1.31,-3.08 -0.83,-6.52 -4.21,-6.86 -19.78,-1.97 -41.17,-3.04 -63.49,-3.04 z"
           id="path915" />
        <path
           class="cls-12"
           d="m 216.26,280.98 c -22.25,0 -43.57,1.09 -63.29,3.09 -3.37,0.34 -5.51,3.84 -4.2,6.97 11.05,26.38 37.1,44.91 67.49,44.91 30.39,0 56.44,-18.53 67.49,-44.91 1.31,-3.12 -0.83,-6.62 -4.2,-6.97 -19.72,-2 -41.04,-3.09 -63.29,-3.09 z"
           id="path917" />
        <path
           class="cls-5"
           d="m 216.26,278.4 c -21.9,0 -42.89,1.08 -62.3,3.04 -3.32,0.34 -5.42,3.78 -4.13,6.86 10.87,25.97 36.52,44.21 66.44,44.21 29.92,0 55.56,-18.24 66.44,-44.21 1.29,-3.08 -0.81,-6.52 -4.13,-6.86 -19.41,-1.97 -40.4,-3.04 -62.31,-3.04 z"
           id="path919" />
        <circle
           class="cls-8"
           cx="314.84"
           cy="44.68"
           r="44.68"
           id="circle921" />
        <path
           class="cls-6"
           d="m 215.62,113.41 c -5.35,0 -9.69,-2.24 -9.69,-5.69 0,-40.03 32.56,-72.59 72.59,-72.59 5.35,0 9.69,4.34 9.69,9.69 0,5.35 -4.34,9.69 -9.69,9.69 -29.34,0 -53.22,23.87 -53.22,53.22 0,3.45 -4.34,5.69 -9.69,5.69 z"
           id="path923" />
        <path
           class="cls-11"
           d="m 151.29,242.18 c 0,8.28 -8.81,12 -19.69,12 -10.88,0 -19.69,-3.72 -19.69,-12 0,-8.28 8.81,-15 19.69,-15 10.88,0 19.69,6.72 19.69,15 z"
           id="path925" />
        <path
           class="cls-11"
           d="m 320.6,242.18 c 0,8.28 -8.81,12 -19.69,12 -10.88,0 -19.69,-3.72 -19.69,-12 0,-8.28 8.81,-15 19.69,-15 10.88,0 19.69,6.72 19.69,15 z"
           id="path927" />
      </g>
    </symbol>
    <marker
       id="Arrow2Sstart"
       inkscape:isstock="true"
       inkscape:stockid="Arrow2Sstart"
       orient="auto"
       refX="0"
       refY="0"
       style="overflow:visible">
      <path
         d="M 8.72,4.03 -2.21,0.02 8.72,-4 c -1.75,2.37 -1.74,5.62 0,8.03 z"
         id="Arrow2SstartPath"
         style="fill:#000000;fill-opacity:1;stroke:#000000;stroke-opacity:1"
         transform="matrix(0.3,0,0,0.3,-0.69,0)" />
    </marker>
    <marker
       id="Arrow2Send"
       inkscape:isstock="true"
       inkscape:stockid="Arrow2Send"
       orient="auto"
       refX="0"
       refY="0"
       style="overflow:visible">
      <path
         d="M 8.72,4.03 -2.21,0.02 8.72,-4 c -1.75,2.37 -1.74,5.62 0,8.03 z"
         id="Arrow2SendPath"
         style="fill:#000000;fill-opacity:1;stroke:#000000;stroke-opacity:1"
         transform="matrix(-0.3,0,0,-0.3,0.69,0)" />
    </marker>
  </defs>
  <path
     class="cls-13"
     d="M 108,0 V 0 C 48.35,0 0,48.35 0,108 v 0 c 0,29.82 12.09,56.82 31.63,76.37 L 11.06,204.94 C 6.98,209.02 9.87,216 15.64,216 H 108 c 0,0 0,0 0,0 59.65,0 108,-48.35 108,-108 v 0 C 216,48.35 167.65,0 108,0 Z"
     id="path934" />
  <use
     width="432.20999"
     height="377.72"
     transform="matrix(0.4,0,0,0.4,21.56,31.55)"
     xlink:href="#Snoo"
     id="use936"
     x="0"
     y="0" />
  <path
     class="cls-13"
     d="m 331.62,77.92 -12.01,28.56 c -1.51,-0.76 -5.11,-1.61 -8.51,-1.61 -3.4,0 -6.81,0.85 -10.12,2.46 -6.53,3.31 -11.35,9.93 -11.35,19.48 v 52.3 H 259.74 V 77.340001 h 29.04 V 91.62 h 0.57 c 6.81,-9.079999 17.21,-15.79 30.74,-15.79 4.92,0 9.65,0.95 11.54,2.08 z"
     id="path938" />
  <path
     class="cls-13"
     d="m 325.84,128.52 c 0,-29.41 20.15,-52.68 50.32,-52.68 27.33,0 46.91,19.96 46.91,48.05 0,4.92 -0.47,9.55 -1.51,14 h -68.48 c 3.12,10.69 12.39,19.01 26.29,19.01 7.66,0 18.54,-2.74 24.4,-7.28 l 9.27,22.32 c -8.61,5.86 -21.75,8.7 -33.29,8.7 -32.25,0 -53.91,-20.81 -53.91,-52.11 z m 26.67,-9.36 h 43.03 c 0,-13.05 -8.89,-19.96 -19.77,-19.96 -12.3,0 -20.62,7.94 -23.27,19.96 z"
     id="path940" />
  <path
     class="cls-13"
     d="m 679.53,31.63 c 10.02999,0 18.24999,8.23 18.24999,18.25 0,10.02 -8.23,18.25 -18.24999,18.25 -10.02,0 -18.25,-8.23 -18.25,-18.25 0,-10.02 8.23,-18.25 18.25,-18.25 z m 14.93999,147.49 H 664.58 V 77.350001 h 29.88999 z"
     id="path942" />
  <path
     class="cls-13"
     d="M 506,33.47 505.91,87 h -0.57 c -8.23,-7.849999 -17.12,-11.07 -28.75,-11.07 -28.66,0 -47.67,23.08 -47.67,52.3 0,29.22 17.78,52.4 46.72,52.4 12.11,0 23.55,-4.16 30.93,-13.62 h 0.85 v 12.11 h 28.47 V 33.47 Z m 1.42,121.39 h -0.99 l -6.67,-6.93 c -4.34,4.33 -10.28,6.93 -17.22,6.93 -14.64,0 -24.88,-11.58 -24.88,-26.6 0,-15.02 10.24,-26.6 24.88,-26.6 14.64,0 24.88,11.58 24.88,26.6 z"
     id="path944" />
  <path
     class="cls-13"
     d="M 620.15,33.47 620.06,87 h -0.57 c -8.23,-7.849999 -17.12,-11.07 -28.75,-11.07 -28.66,0 -47.67,23.08 -47.67,52.3 0,29.22 17.78,52.4 46.72,52.4 12.11,0 23.55,-4.16 30.93,-13.62 h 0.85 v 12.11 h 28.47 V 33.47 Z m 1.28,121.39 h -0.99 l -6.67,-6.93 c -4.34,4.33 -10.28,6.93 -17.22,6.93 -14.64,0 -24.88,-11.58 -24.88,-26.6 0,-15.02 10.24,-26.6 24.88,-26.6 14.64,0 24.88,11.58 24.88,26.6 z"
     id="path946" />
  <path
     class="cls-13"
     d="m 752.43999,77.350001 h 21.85 V 102.79 h -21.85 v 76.33 h -29.89 v -76.33 h -21.75 V 77.350001 h 21.75 V 49.69 h 29.89 z"
     id="path948" />
  <text
     xml:space="preserve"
     style="font-size:191.452px;line-height:1.25;font-family:sans-serif;letter-spacing:-9.75px;fill:#081114;fill-opacity:1;stroke-width:7.1794"
     x="772.27148"
     y="177.62592"
     id="text959"><tspan
       sodipodi:role="line"
       id="tspan957"
       x="772.27148"
       y="177.62592"
       style="font-style:normal;font-variant:normal;font-weight:800;font-stretch:normal;font-size:191.452px;font-family:'Reddit Sans';-inkscape-font-specification:'Reddit Sans, Ultra-Bold';font-variant-ligatures:normal;font-variant-caps:normal;font-variant-numeric:normal;font-variant-east-asian:normal;fill:#081114;fill-opacity:1;stroke-width:7.1794"
       dx="0">scraper</tspan></text>
</svg>
